<?xml version="1.0" encoding="utf-8"?>
<!-- Generator: Adobe Illustrator 25.2.1, SVG Export Plug-In . SVG Version: 6.00 Build 0)  -->
<svg version="1.1" id="Layer_1" xmlns="http://www.w3.org/2000/svg" xmlns:xlink="http://www.w3.org/1999/xlink" x="0px" y="0px"
	 viewBox="0 0 2025 1072" style="enable-background:new 0 0 2025 1072;" xml:space="preserve">
<style type="text/css">
	.st0{fill:#F4CC00;}
	.st1{fill:#F6D42A;}
	.st2{fill:#FEFEFE;}
	.st3{fill:#DDC756;}
	.st4{fill:#E2C948;}
	.st5{fill:#D3CBA0;}
	.st6{fill:#143397;}
	.st7{fill:#050D27;}
	.st8{fill:#0D2163;}
	.st9{fill:#050C25;}
	.st10{fill:#061030;}
	.st11{fill:#0A1B4F;}
	.st12{fill:#000001;}
</style>
<g>
	<g>
		<path class="st0" d="M2024.9,988.9c0,1.7,0,3.3,0,5c-0.9,2.9-0.8,5.9-1.1,8.8c-1.4,14.1-8.4,25.8-16.7,36.7
			c-9.6,12.5-22,21.1-36.2,27.5c-7.8,3.5-16.1,4-24.4,4.5c-1.7,0-3.3,0-5,0c-1.8,0-3.6,0-5.5,0c-616.2,0-1232.5,0-1848.7,0
			c-2.4,0.2-4.9-0.5-7.2,0.5c-0.7,0-1.3,0-2,0c-2.9-0.9-5.8-0.9-8.8-1.1c-13-1.2-24-7.4-34.3-14.9c-14.8-10.7-24.9-25-31.5-42
			c-2.5-6.5-1.8-13.4-3.4-20c0-2.3,0-4.7,0-7c0.9-1.7,0.5-3.6,0.5-5.4c0-297,0-594.1,0-891.1c0-1.8,0.5-3.7-0.5-5.4c0-2.3,0-4.7,0-7
			C1,75.2,1,72.2,1.2,69.3c1.1-12.9,7.4-23.6,14.6-33.9C26.6,20.2,41.2,9.9,58.6,3.3c6.6-2.5,13.7-1.8,20.5-3.3c1.3,0,2.7,0,4,0
			c1.7,0.9,3.6,0.5,5.4,0.5c616,0,1232,0,1848.1,0c1.8,0,3.7,0.5,5.4-0.5c1.3,0,2.7,0,4,0c3.2,0.9,6.5,0.8,9.8,1.1
			c13.1,1.2,23.9,7.5,34.3,14.9c15.1,10.8,25.1,25.4,31.7,42.5c2.5,6.6,1.8,13.7,3.3,20.5c0,1.3,0,2.7,0,4c-0.9,1.7-0.5,3.6-0.5,5.4
			c0,298.4,0,596.7,0,895.1C2024.5,985.3,2024,987.2,2024.9,988.9z"/>
		<path class="st1" d="M1941.9,0.1c-1.4,1.8-3.4,1-5.1,1c-540,0-1080.1,0-1620.1,0c-76.1,0-152.3,0-228.4,0c-1.7,0-3.7,0.8-5.1-1
			C702.7,0.1,1322.3,0.1,1941.9,0.1z"/>
		<path class="st1" d="M86,1071c1.8,0,3.7-0.1,5.5-0.1c613,0,1226,0,1839,0c2.2,0,4.3,0.1,6.5,0.1c0.2,0.3,0.2,0.6-0.1,0.9
			c-617,0-1233.9,0-1850.9,0c-0.2-0.2-0.3-0.4-0.3-0.6C85.9,1071.1,85.9,1071,86,1071z"/>
		<path class="st2" d="M2024.9,79.1c-1.9-3-1.7-6.6-2.5-9.9c-8.8-36-37.3-62.2-74-68c-0.9-0.1-2.1,0.1-2.5-1.1c25.3,0,50.7,0,76-0.1
			c2.5,0,3.1,0.6,3.1,3.1C2024.9,28.4,2024.9,53.7,2024.9,79.1z"/>
		<path class="st2" d="M79.1,0.1c-3,1.9-6.6,1.6-9.9,2.5c-36.3,10-58.9,33.3-67.4,70.1c-0.4,1.8,0.1,4-1.8,5.4
			C0.1,53.2,0.1,28.2,0,3.3C0,0.5,0.6,0,3.3,0C28.6,0.1,53.8,0.1,79.1,0.1z"/>
		<path class="st2" d="M0.1,993.9c1.9,1,1.2,2.9,1.6,4.4c8.9,39.2,32.9,63.1,72,72c1.5,0.3,3.5-0.4,4.4,1.5
			c-24.9,0-49.8-0.1-74.8,0.1c-2.8,0-3.3-0.6-3.3-3.3C0.1,1043.8,0.1,1018.8,0.1,993.9z"/>
		<path class="st2" d="M1946.9,1071c37-4.4,68.5-33.6,76-70.2c0.5-2.3,0.1-5,2.1-6.9c0,25,0,50,0.1,75c0,2.5-0.6,3.1-3.1,3.1
			c-25-0.1-50-0.1-75-0.1C1946.3,1071.6,1946.3,1071.3,1946.9,1071z"/>
		<path class="st1" d="M2024.9,988.9c-1.5-1.5-1-3.4-1-5.2c0-298.5,0-597,0-895.4c0-1.8-0.5-3.7,1-5.2
			C2024.9,385,2024.9,687,2024.9,988.9z"/>
		<path class="st1" d="M0.1,85.1c1.8,2.2,1,4.8,1,7.2c0,277,0,553.9,0,830.9c0,19.3,0,38.6,0,58c0,1.9,0.5,4-1,5.7
			C0.1,686.3,0.1,385.7,0.1,85.1z"/>
		<path class="st3" d="M86,1071c0,0.3,0.1,0.6,0.1,0.9c-2,0-4,0-6,0C81.8,1069.9,84,1071.3,86,1071z"/>
		<path class="st4" d="M1936.9,1071.9c0-0.3,0.1-0.6,0.1-0.9c1.7,0,3.4,0,5.1,0c0.3,0.2,0.4,0.4,0.2,0.6c-0.1,0.1-0.3,0.2-0.4,0.2
			C1940.3,1071.9,1938.6,1071.9,1936.9,1071.9z"/>
		<path class="st5" d="M1941.9,1071.9c0-0.3,0.1-0.6,0.1-0.8c1.6,0,3.2-0.1,4.8-0.1c-0.1,0.3-0.1,0.6,0,0.9
			C1945.3,1071.9,1943.6,1071.9,1941.9,1071.9z"/>
		<path d="M1013.5,1055.9c-301,0-601.9,0-902.9,0c-42.3,0-77.5-25.9-89-65.5c-2.3-8-3.5-16.3-3.5-24.6c0-287.1,0-574.2,0-861.4
			c0-50,40.2-90.1,90.2-90.4c24-0.1,48,0,72,0c578.6,0,1157.2,0,1735.8,0c42.6,0,77.9,25.9,89.3,65.7c2.6,9,3.5,18.3,3.5,27.6
			c0,150.3,0,300.6,0,450.9c0,135.1,0,270.3,0,405.4c0,45.4-29.7,81.7-74.1,90.6c-6.4,1.3-12.9,1.5-19.4,1.5
			C1614.8,1055.9,1314.1,1055.9,1013.5,1055.9z"/>
		<path class="st6" d="M1508,230.4c-2.7,13.8-5.3,27.7-8,41.5c-9.3,48-18.7,96.1-27.8,144.2c-2.7,14.3-12.3,19.4-24.3,19.8
			c-16,0.6-32,0.5-48,0c-12.4-0.4-22.7-6.3-25.1-20.4c-0.5-2.7-0.6-5.6-2.3-8.2c-2.1,5.4-2.1,11.2-4.9,16.2c-5,9-13.5,12.2-23,12.4
			c-15,0.3-30,0.4-45,0c-12.9-0.4-22.8-6.2-25.6-20.5c-8.2-42.8-16.7-85.6-25-128.4c-4.3-22.2-8.3-44.5-13.1-66.6
			c-3.6-16.9,4.8-30.7,22.7-31.9c13.7-0.9,27.6-2.2,41.2,1.6c7.9,2.1,13.2,7.2,15,15.1c4.9,21.1,7.9,42.5,12,63.8
			c0.1,0.8,0.4,1.5,1.6,2.4c1.5-5.8,2.8-11.7,4.5-17.4c1.7-5.9,2.1-12.2,5.1-17.7c4.5-8.1,12.3-11.6,20.8-11.8
			c13.2-0.4,26.6-2,39.8,1.6c8.1,2.2,13.3,7.3,15.3,15.4c2.2,8.7,4.2,17.5,7,26.3c1.6-8.9,3.2-17.7,4.9-26.6
			c2.1-11.4,4.3-22.9,6.5-34.3c1.9-9.5,7.7-15.1,17.1-17.2c12.7-2.9,25.6-1.8,38.3-1c10.4,0.7,18.5,6.1,22.3,17.5
			c3.7-11.9,12-17.1,22.6-17.7c11.7-0.6,23.9-2.4,35.1,1.9c5.3,2,9.4,1.1,14.1-0.4c22.1-7.4,44.2-6.2,65.7,1.5
			c20.1,7.2,33.1,21.9,39.1,42.4c4.5,15.4,6.4,31.2,6.3,47.4c-0.2,42.3,0,84.6-0.1,127c0,9.6-2.2,18.5-11.2,24.2
			c-3.5,2.2-7.6,3.3-11.4,3.4c-13.9,0.2-28,2.2-41.7-1.5c-7.3-1.9-12.1-7-14.5-13.9c-1.7-5-2.3-10.3-2.3-15.7
			c0.1-41.7,0.1-83.3,0.1-125c0-3.2,0-6.3-0.1-9.5c-0.3-8.1-1.2-8.9-9.3-7.9c-6.9,0.8-12.7,7.3-12.7,14.3c0,44.2,0.1,88.3-0.1,132.5
			c0,9.3-2.3,17.8-10.9,23.3c-3,1.9-6.2,2.6-9.4,3c-12.8,1.6-25.6,1.7-38.3,0.2c-16.7-1.9-22-12.9-22.2-27.5c-0.3-16-0.1-32-0.1-48
			c0-41.3,0-82.6,0-124c0-1.8,0-3.6,0-5.5C1508.6,230.4,1508.3,230.4,1508,230.4z"/>
		<path class="st6" d="M1061.3,384.3c-0.9,12.1,1.1,22.8-2.2,33.3c-2.2,7-6.5,12.4-13.3,14.4c-11.6,3.5-23.5,6.4-35.7,6.9
			c-38.4,1.5-66-17.6-72.9-56.8c-1.3-7.2-2.2-14.5-2.1-21.8c0.1-29.5,0-59,0.1-88.5c0-4-0.8-6.2-5.1-6.6c-2.3-0.2-5.2-0.4-6.7-1.8
			c-4.6-4.3-7.6-1.8-11.6,1.1c-5.3,3.9-11.6,5.3-18.4,3.7c-12.6-3-25.2-6.7-38.3-6c-2.1,0.1-5.2-1.5-5.8,2.6c-0.6,4.2,2,5,5.2,5.7
			c4.4,0.9,8.7,2.1,13.1,3.1c33.9,7.7,54,28.2,59.7,62.9c3.4,20.5,1.3,40.4-6.7,59.3c-8.5,20.1-25,31.8-45.7,38
			c-30.6,9.2-60.7,5.7-90.5-3.1c-9.5-2.8-14.3-11-14.9-20.6c-0.7-12.2-1.6-24.6,1-36.8c2.5-12.1,15.5-18.4,26.4-16.7
			c14,2.2,27.9,4.9,42.1,5.5c3.3,0.1,6.8,0.8,7.1-4.4c0.4-6.9-0.1-7.9-5.9-9.3c-5.7-1.3-11.4-2.5-17-4.1
			c-31.8-9.1-50.6-29.8-54.9-62.7c-3.2-24.9,1.7-48.2,17.9-68c8.9-10.8,20.3-18.1,33.7-22.4c25.9-8.3,51.8-7.6,77.7,0.4
			c5.2,1.6,10.9,1.9,15.3,5.8c1.3,1.2,2.3,0.5,3.3-0.6c3.8-4.2,8.6-6.8,14.2-7.5c3.7-0.4,4.8-2.4,4.7-6c-0.2-6.5-0.6-13.1,0.2-19.5
			c1.9-14.5,9-22.1,23.6-23.1c13.5-0.9,27.3-2.2,40.7,1.6c7.4,2.1,12.1,7.2,14.5,14.5c2.9,8.8,1.8,17.8,1.8,26.8
			c0,3.7,1,4.8,4.8,4.8c6.3,0,12.6-0.4,18.9,0.6c15.5,2.5,20.7,13.2,21.3,26.4c0.3,7.5,0.1,15,0.1,23.9c2.3-4.4,3.8-7.7,5.6-10.7
			c13-22.9,32.7-36.1,58.6-40.9c29.4-5.5,57.1-2.1,82,15.4c16.2,11.4,25.7,27.8,30.7,46.6c11.5,42.7,10.5,85.4-1,127.8
			c-5.5,20.3-16.6,36.9-34.6,48.5c-11.8,7.7-25.3,9.9-38.8,12.1c-19,3.1-37.6,0.2-55.7-5.7c-20.4-6.7-33.7-21.3-43-40.1
			C1063.7,390,1062.8,387.7,1061.3,384.3z"/>
		<path class="st6" d="M1388.4,941.4c-10.2,11.9-23.2,18.4-38.3,20.9c-2.1,0.3-4.3,0.6-6.4,0.6c-58.3,0-116.6,0.6-175-0.2
			c-21.9-0.3-41.6-8-53.9-28c-5-8.1-5.5-17.6-6.8-26.8c-0.4-2.6-0.3-5.4,0-8c1.1-9.8-0.7-18.3-8-25.8c-5-5.2-5.8-12.8-5.8-19.7
			c-0.2-72.8-0.2-145.6,0-218.4c0-10.1,2.7-19.8,8.4-28.3c9.1-13.4,19.3-26,32.2-35.8c18.4-14,43.9-10.5,59.3,7.9
			c13.3,15.9,13.6,41.2-0.5,56.4c-9.2,9.9-12.4,20.3-11.8,33.7c1,20.8,0.4,41.6,0.2,62.5c-0.1,4.5,1.2,5.9,5.8,5.8
			c48.7-0.2,97.3-0.2,146-0.1c22,0,39.4,9.5,52.5,27c2.6,3.5,3.6,3.3,6-0.1c13.7-19.1,32.9-27,56-27c47.7,0.2,95.3,0,143,0.2
			c4.7,0,5.8-1.4,5.8-5.9c-0.2-21.7-0.8-43.3,0.2-65c0.5-11.4-3.5-20.1-10.4-28c-11.7-13.5-14.4-28.8-10.2-45.7
			c4.1-16.7,21-29.9,38.3-30.5c16.7-0.5,30.3,5.3,40.2,18.9c7.1,9.7,15.6,18.3,20.9,29.2c5.5,11.5,9,23.6,8.9,36.5
			c0,67.6,0,135.3,0,202.9c0,12.1-4.1,22.5-13,30.7c-2.3,2.2-3,4.4-3,7.4c-0.3,10.9,1.1,21.9-1.6,32.8
			c-3.8,15.5-13.5,26.3-27.1,33.3c-11,5.7-23.1,8.2-35.7,8.2c-54.8-0.1-109.6-0.1-164.5,0C1419.8,963,1402,957.8,1388.4,941.4z"/>
		<path class="st6" d="M454.2,412.1c-1.6,7.7-3.3,15.3-10.9,19.9c-4.3,2.6-9,3.6-13.8,3.9c-14,0.9-27.6-1.2-40.1-7.9
			c-1.6-0.8-2.6-0.7-4.1,0c-22.5,11.2-46,13.6-70.4,8.2c-9.3-2-18.4-4.4-26.4-10.1c-14.2-10-23.7-23.2-27.8-40.1
			c-1.1-4.4-2.1-8.7-3.2-13.1c-2.1,0.5-1.6,2.4-2,3.7c-6.5,21.7-19,38.7-38.7,50.2c-11,6.4-23.4,9.2-35.7,10.6
			c-29.7,3.4-59.5,2-89.1-2.3c-14.4-2.1-18.9-12.2-20-24.1c-0.1-0.8,0-1.7,0-2.5c0-91,0-181.9,0-272.9c0-10.1,2.6-19.4,12.4-24.4
			c6.1-3.2,13.2-3.3,19.9-4c17.9-1.9,35.9-2.2,53.9-2.2c15.3,0,30.3,2.7,44.6,7.6c20.2,7,35.3,20.7,43.3,40.4
			c12.7,30.8,13.2,62.2,0.9,93.5c-1.5,3.9-3.9,7.3-6.4,10.7c-1.2,1.6-1.3,2.7,0.1,4.3c13.9,15.7,18.7,34.9,21.2,55
			c0,0.4,0.3,0.8,0.6,1.7c17.6-41.6,52.1-53.1,93-53.5c-0.6-3.6-3.2-2.6-5.1-2.7c-17.5-0.4-34.4,2.6-51.3,7.1
			c-11.2,3-25-4.9-26.8-16.3c-2.4-14.9-3-29.8,0.7-44.6c1.6-6.6,6.3-11.3,12.7-13.1c22.3-6.3,44.9-11.3,68.4-10.1
			c14.4,0.8,28.6,3,41.8,8.9c18.8,8.4,30.6,23.1,35.9,42.9c3.9,14.2,5.5,28.7,5.3,43.5c-0.3,25.5-0.1,51-0.1,76.5
			c0,2.9,0.4,4.5,3.6,5.9c6.1,2.7,10.5,7.5,11.9,14.4c0.4,2.3,1.1,4.5,1.6,6.8c0.9,1,1.3,2.3,1.3,3.6c0.1,6.9,0.1,13.9,0,20.8
			C455.5,409.8,455.1,411,454.2,412.1z"/>
		<path class="st6" d="M442.9,733.9c3.2-36.2,24.4-62.5,59.2-71c24-5.8,47.2-4.4,70.4,2.5c5.2,1.5,10.9,1.9,15.3,5.8
			c1.1,0.9,2,0.8,3-0.3c4-4.6,9.1-7.2,15.1-7.9c3.4-0.4,4.3-2.3,4.1-5.5c-0.2-5.2-0.1-10.3-0.1-15.5c0.1-16.4,7.8-26.3,24-27.5
			c13.3-1,27-2.2,40.2,1.5c7.8,2.2,12.7,7.3,15.1,15.1c2.7,8.7,1.7,17.5,1.7,26.3c0,3.8,1.1,4.9,4.8,4.8c5.3-0.3,10.7-0.6,16,0.2
			c14,1.9,21.9,7,23.8,23c1.3,11.2,1.3,22.6-0.3,33.8c-2.1,14.6-12.9,20.3-25.7,20.9c-5,0.3-10,0.1-15,0c-2.6-0.1-3.5,0.9-3.5,3.5
			c0.1,29.7,0.1,59.3,0,89c0,3.2,1.5,3.7,4,3.2c2.6-0.5,5.3-0.7,7.9-1.4c18.3-5.3,31.7,4.9,32.9,23.3c0.7,11.2,1.7,22.6-1.6,33.8
			c-2.3,7.7-7.2,13.2-15,15.3c-9.8,2.7-19.7,5.1-29.8,6c-18.9,1.6-36.9-1.1-52.5-13c-10.7-8.1-17.9-18.7-21.7-31.6
			c-3.6-12.2-5.4-24.6-5.2-37.4c0.3-28.5,0-57,0.2-85.5c0-3.8-1.2-5.3-4.8-5.9c-3.8-0.6-7.6-1.3-10.6-4c-1.5-1.3-2.6-1.2-4.2,0.3
			c-7.1,6.7-15.3,8.7-24.8,6.1c-12.1-3.3-24.2-6.1-36.9-5.5c-2,0.1-4.5-0.7-4.7,2.8c-0.2,3.1,0.9,4.6,3.8,5.3
			c10.5,2.5,21.3,4.2,31.2,8.7c20.7,9.2,34.4,24.1,40.4,46.5c5.9,21.8,5.3,43.3-1.8,64.4c-7.9,23.8-25.5,37.3-49,44.3
			c-30.1,8.9-59.7,5.3-89.1-3.2c-9.8-2.8-14.7-11.1-15.3-20.8c-0.7-12.2-1.6-24.6,1-36.8c2.6-12,15.5-18.4,26.5-16.6
			c14.1,2.3,28.2,5,42.6,5.5c3,0.1,6.1,0.5,6.6-4c0.7-6.6,0-8.3-5-9.4c-8.1-1.9-16.3-3.5-24.1-6.4c-27.2-10-43.8-28.8-47.9-57.9
			c-2.4-0.7-3.7-2.2-3.8-4.7C440.8,747,442.6,740.5,442.9,733.9z"/>
		<path class="st6" d="M442.1,753.9c-0.2,1.8,1,3,1.9,4.3c-1.5,1.4-0.8,3.1-0.8,4.7c0,10.8,0.3,21.7-0.1,32.5
			c-0.3,9.3-2.7,17.9-11.6,22.9c-4.7,2.6-10,3.6-15.3,3.6c-22,0-44,0-65.9,0c-5.6,0-5.8,0.2-4.4,5.6c2.2,8.3,2.3,8.4,10.7,8.3
			c13.5-0.1,26.9-2.1,40.1-4.9c15.7-3.4,29.8,4.3,31,21.3c0.9,12.4,1.9,24.9-1.2,37.3c-1.8,7.4-6.6,12.9-13.5,14.8
			c-28.8,7.9-57.8,11.8-87.7,5c-28.6-6.4-45.3-24.5-53.8-51.3c-4.7-14.6-7.2-29.7-8.5-45c-0.8-2.6-0.2-5.3-0.4-7.9
			c0-3.7,0-7.4,0.2-11.2c0.3-0.6,1.3,0.1,0.6-0.2c-0.3-0.1-0.4,0-0.5,0.1c-0.8,3.7-0.2,7.4-0.4,11.1c-0.2,2.7,0.4,5.3-0.4,8
			c-1.1,16-3.8,31.8-9.9,46.7c-10.5,25.2-28.4,41.8-55.6,48.7c-23.7,6-47.6,4.7-71.5,4c-11.1-0.3-22.2-1.3-33.3-3.2
			c-14.1-2.4-18.5-11.9-19.8-23.9c-0.1-0.7,0-1.3,0-2c0-91.5,0-182.9,0.1-274.4c0-9.9,2.8-19,12.5-23.8c6-3,12.9-3.2,19.5-3.9
			c18.7-2,37.6-2.4,56.4-2.1c15.8,0.2,31.4,2.8,45.8,8.9c22.3,9.3,36.9,26.1,43.8,49.5c8.2,27.9,7.8,55.5-2.9,82.7
			c-0.7,1.8-1.5,3.9-2.8,5.3c-4.8,5.4-4.7,9.7,0.3,15.5c10.2,11.7,13.3,26.6,16.2,41.4c0.1,0.7-0.2,1.7,1,2.3
			c0.6-14.4,1.2-28.7,4.1-42.8c3.9-19.2,9-37.9,22-53.4c8.3-10,18.2-17.7,30.3-22.1c23.4-8.6,47.1-9.8,71-1.6
			c21.5,7.4,35.1,23,43.5,43.4c4.3,10.5,6.6,21.6,8.4,32.8C443.3,745,442.7,749.5,442.1,753.9z"/>
		<path class="st6" d="M454.9,384c0.1-27,0.1-54,0.2-81c0-29.2-0.1-58.3,0.1-87.5c0.1-9.4,2.6-18.2,11.5-23.5
			c4.7-2.8,10-3.9,15.3-3.9c11.9,0.1,24-1.7,35.6,3c1.4,0.6,2.6-0.3,3.8-0.8c18.8-6.8,37.8-6.9,56.9-1.3
			c8.6,2.5,14.8,12.4,15.1,24.2c0.1,4.8,0,9.5,0,14.5c2.2-0.4,2.5-2.1,3.3-3.3c12.5-18.1,29.4-29.5,50.8-34.6
			c9.4-2.2,18.8-4.4,28.5-4.7c3.5-0.1,4.6-1.3,4.5-4.7c-0.1-14.8-0.3-29.7,0-44.5c0.2-9.6,2.8-18.4,11.8-23.9
			c3.7-2.3,7.9-3.4,11.8-3.6c12.1-0.7,24.3-1.5,36.3,0.5c15.7,2.6,19.9,12.7,21.3,25.5c0.1,0.8,0,1.7,0,2.5c0,90,0,179.9-0.1,269.9
			c0,10.1-2.4,19.5-11.9,25.4c-3.5,2.2-7.6,3.2-11.4,3.3c-11.8,0.3-23.7,2.2-35.2-1.6c-5.1-1.7-9.4-1.2-14.2,0.4
			c-20.5,6.8-41.2,5.9-61.3-1.2c-25.2-8.8-39.9-27.5-46.4-52.8c-9.1-35.6-9.2-71.5-2.6-107.5c0.7-4,0.1-5.4-3.9-3.9
			c-7.1,2.7-13.8-0.6-20.6-1.5c-12.5-1.6-15.6,0.3-17.4,12.7c-0.5,3.4-0.6,7-0.6,10.5c0,39.3,0.1,78.6-0.1,117.9
			c0,9.5-2.4,18.1-11.3,23.6c-3.4,2.1-7.3,3.1-10.9,3.2c-13.3,0.5-26.6,1.8-39.8-0.8c-9.6-1.9-15.5-7.8-17.6-17.4
			c-0.4-1.8-0.9-3.5-1.4-5.3C454.3,402.7,454.3,393.3,454.9,384z"/>
		<path class="st6" d="M1940,231.5c-0.3,6.1,0.2,13-1.2,20c-2.3,11.6-15.8,19.3-27.2,16.6c-13-3-25.8-6.8-39.3-6.1
			c-2.1,0.1-4.8-1.1-5.2,2.8c-0.3,3.5,1.3,4.7,4.4,5.3c4.6,0.9,9.1,2.1,13.6,3.2c33.8,7.6,54.2,27.9,60,62.6
			c3.5,20.7,1.4,40.7-6.6,59.7c-8.4,19.9-24.7,31.6-45.2,37.8c-30.7,9.4-61,5.8-91-3c-9.5-2.8-14.3-11.1-14.8-20.6
			c-0.7-12.2-1.6-24.6,1-36.8c2.6-12.1,15.5-18.4,26.4-16.7c14,2.2,27.9,4.9,42,5.5c3.3,0.1,6.8,0.8,7.1-4.4
			c0.4-6.9-0.1-7.9-5.9-9.3c-6.2-1.4-12.4-2.7-18.4-4.5c-31.3-9.4-49.5-30.4-53.5-62.8c-3.1-24.7,1.8-47.8,17.9-67.5
			c8.9-10.8,20.3-18.1,33.6-22.4c26.4-8.5,52.7-7.4,79.1,0.7c7.2,2.2,14.5,3.8,18.9,10.8c3,4.7,3.8,9.9,4.2,15.2
			C1940.2,222,1940,226.4,1940,231.5z"/>
		<path class="st6" d="M1747.1,108.1c5.7,0.5,12.7-0.6,19.7,0.7c11.8,2.2,19.3,8.7,20.2,20.6c1.3,17.5,3.4,35.2-2.8,52.3
			c-5,13.9-10.2,27.8-15.4,41.7c-1.5,4.1-3.3,8-4.5,12.2c-3.4,11.5-11.2,18.2-22.9,19.1c-10.4,0.8-20.9,1.2-31.3-0.8
			c-13.3-2.4-19.9-16.4-17.9-27.6c3.2-18,6.8-36,9.9-54c2.1-12,0.4-24.3,0.9-36.4c0.2-5.7,1.1-11.2,4-16.3c5.1-8.8,13.7-11,23-11.6
			C1735.2,107.8,1740.6,108.1,1747.1,108.1z"/>
		<path class="st7" d="M454.9,384c0,9.4,0,18.7,0.1,28.1c-0.2,0-0.5,0-0.7,0c0-9.4,0-18.7,0-28.1C454.4,384,454.7,384,454.9,384z"/>
		<path class="st8" d="M442.1,753.9c0.2-4.4-0.2-8.8-0.9-13.2c1.7-2,0.3-4.8,1.8-6.9C442.6,740.5,444.2,747.3,442.1,753.9z"/>
		<path class="st9" d="M262.2,813c0-2.7,0-5.3,0-8c0.1-0.2,0.2-0.5,0.3-0.7c0.1,0.2,0.2,0.5,0.3,0.7c0,2.6,0,5.3,0.1,7.9
			c0,0-0.4,0-0.4,0L262.2,813z"/>
		<path class="st0" d="M1373.2,306.1c-7.1,28.9-14.2,57.5-21.3,86.1c-1.4,5.7-2.8,11.3-4.1,17c-0.5,2.1-1.4,3-3.7,3
			c-14.7-0.1-29.3-0.2-44,0c-3.7,0.1-3.4-2.5-3.8-4.5c-5.2-26.5-10.2-52.9-15.4-79.4c-7.2-36.9-14.3-73.8-21.6-110.7
			c-0.8-4-0.7-5.9,4.3-5.6c8.1,0.5,16.3,0.3,24.5,0c3.5-0.1,4.8,0.9,5.4,4.4c6,34.1,12.2,68.1,18.3,102.2
			c3.7,20.6,7.4,41.3,11.1,61.9c0.2,1.1,0.2,2.4,1.6,3.1c6.8-27.1,13.5-54.2,20.3-81.3c4.1-16.6,8.4-33.2,12.3-49.9
			c0.8-3.2,1.8-4.7,5.5-4.5c8.1,0.3,16.3,0.4,24.5,0c3.7-0.2,4.7,1.3,5.5,4.5c9.7,42,19.4,84,29.2,125.9c0.4,1.5,0.4,3.2,2.2,5
			c1.7-9,3.2-17.4,4.8-25.8c8.5-47,16.9-94,25.3-141c0.6-3.2,1.5-4.8,5.3-4.6c7.8,0.4,15.7,0.3,23.5,0c3.5-0.1,4.6,0.7,3.8,4.4
			c-4.8,24.5-9.5,49-14.2,73.5c-7.5,39.2-15.1,78.4-22.6,117.7c-0.6,3.3-1.5,4.7-5.3,4.7c-14-0.3-28-0.3-42,0
			c-3.8,0.1-5-1.2-5.8-4.7c-7.2-32.6-14.6-65.3-22-97.9C1374.7,308.5,1374.8,307.3,1373.2,306.1z"/>
		<path class="st0" d="M1562.9,229.7c11.1-11.6,23.6-18.4,38.5-20.1c11.9-1.3,23.6-0.7,35.1,2.9c18.5,5.9,26.9,20.1,30.3,38.1
			c1.8,9.7,2.3,19.5,2.3,29.3c0,42.3-0.1,84.6,0.1,127c0,4-0.7,5.6-5.1,5.3c-7.5-0.4-15-0.4-22.5,0c-4.4,0.2-5.8-0.9-5.8-5.6
			c0.2-43,0.1-86,0.1-129c0-8.2-0.5-16.3-3.2-24.1c-2.5-7.4-7.4-12.1-15.1-13.8c-17.6-4.1-32.7,0-44.4,14.2
			c-5,6.1-7.5,13.1-7.5,21.2c0.1,44,0,88,0.2,132c0,4.1-0.8,5.4-5.1,5.2c-8.1-0.4-16.3-0.2-24.5,0c-2.8,0.1-3.6-0.8-3.6-3.6
			c0.1-64.3,0.1-128.6,0-192.9c0-2.9,0.8-3.7,3.6-3.6c6.8,0.2,13.7,0.2,20.5,0c2.6-0.1,3.5,0.9,3.8,3.3
			C1561.3,219.8,1562.1,224.2,1562.9,229.7z"/>
		<path class="st0" d="M1074,313.3c0.1-21.9,1.2-40.3,6.9-58.1c9.2-28.8,29-44.2,59.1-45.9c9.3-0.5,18.6-0.2,27.8,1.7
			c21,4.4,35.6,16.4,44,36.1c6.4,15.3,8.7,31.4,9.4,47.8c1,24.7,0.4,49.3-6.4,73.3c-1.3,4.6-3,9.2-5,13.5c-7.6,16.5-20,27.1-38,30.9
			c-15.9,3.4-31.7,3.4-47.6,0c-18.1-3.8-30.6-14.7-38.3-31.3c-6.8-14.7-9.6-30.4-10.9-46.4C1074.5,326.6,1074.3,318.3,1074,313.3z"
			/>
		<path class="st0" d="M898.1,230.5c0,3.8-0.2,7.7,0.1,11.5c0.2,3-1,3.2-3.5,2.5c-13-3.5-26.1-6.8-39.8-6.5c-3.7,0.1-7.3,0.2-10.9,1
			c-9.9,2.1-16.5,9.1-18,19c-0.3,2.1-0.6,4.3-0.8,6.4c-0.9,15.8,6.4,25.3,21.8,28.5c7.7,1.6,15.3,3.1,22.7,5.7
			c19.1,6.6,30.4,19.7,33.6,39.6c2.1,13,1.8,25.9-1.4,38.7c-5.1,20.5-19.7,31-39.2,35.4c-22.6,5.1-45,2.7-67.2-2.9
			c-2.3-0.6-2.7-1.8-2.7-3.9c0.1-7.5,0.2-15,0-22.5c-0.1-3.3,1.3-3.4,3.9-2.9c11.8,2.4,23.6,4.2,35.6,5.3c2.2,0.2,4.3,0.4,6.5,0.4
			c20.4,0.5,31.7-10.8,31.2-31.3c-0.1-3.3-0.5-6.7-1-9.9c-1.4-8.2-6.1-13.8-14-16.7c-6.3-2.3-12.9-3.2-19.4-4.8
			c-37.3-9.2-48.7-34.2-42.9-68.7c4.2-25,21.8-40.5,48.1-44.4c18.7-2.7,36.8-0.6,54.8,4.9c1.9,0.6,2.7,1.4,2.7,3.5
			C898,222.5,898.1,226.5,898.1,230.5z"/>
		<path class="st0" d="M1037,382.3c0,8.7,0,16.9,0,25.1c0,1.8-0.2,3.1-2.4,3.7c-13.4,3.1-26.8,5.6-40.6,3.3
			c-18.8-3.2-30.8-16.6-34-37.4c-0.9-5.8-1.1-11.6-1.1-17.4c0-37.5-0.1-75,0.1-112.5c0-3.9-1-5.2-4.9-4.9c-5.6,0.4-11.3,0-17,0.1
			c-2.6,0.1-3.5-0.7-3.4-3.4c0.2-7.8,0.2-15.7,0-23.5c-0.1-2.7,0.9-3.4,3.5-3.3c6,0.2,12-0.1,18,0.1c3.2,0.1,3.9-0.9,3.9-3.9
			c-0.2-13.3,0-26.7-0.1-40c0-3.1,0.7-4.3,4.1-4.2c8.3,0.3,16.7,0.2,25,0c3.2-0.1,4.2,0.8,4.2,4.1c-0.2,13.2,0.1,26.3-0.2,39.5
			c-0.1,3.9,1.1,4.6,4.7,4.6c12.2-0.2,24.3,0,36.5-0.2c3,0,4.1,0.6,4,3.8c-0.3,7.5-0.2,15,0,22.5c0.1,3.1-0.8,3.9-3.9,3.9
			c-12.2-0.2-24.3,0.1-36.5-0.2c-3.5-0.1-4.8,0.6-4.8,4.5c0.2,38.7,0.1,77.3,0.1,116c0,3.9,0.4,7.6,1.8,11.3
			c2.9,7.8,8.7,12,17.1,12.1c4.3,0,8.7-0.3,12.9-0.9C1028.1,384.4,1032.2,383.3,1037,382.3z"/>
		<path d="M1055,367c-6.9-7.1-15-9.8-24.9-7.3c-14.1,3.6-14.1,3.4-14.1-10.9c0-25.6,0.1-51.3-0.1-76.9c-0.1-5,1.5-6.5,6.2-5.9
			c3.1,0.4,6.3,0.1,9.5,0.1c9.1,0,17.5-1.9,24.6-9.9c-8.5,37.3-7.7,73.6-0.1,109.8C1056.4,367,1055.9,367.3,1055,367z"/>
		<path class="st10" d="M1055,367c0.4-0.4,0.7-0.7,1.1-1.1c0.6,0.9,1.5,2.1,0.5,2.8C1055.8,369.3,1055.3,367.9,1055,367z"/>
		<path class="st0" d="M1158.2,769.5c4-1.6,7.8-3.3,11.7-4.7c5.5-2,11.2-2.6,17.1-2.6c47.5,0,95,0.5,142.5-0.2
			c24.6-0.4,37.4,12.4,44.5,31c0.9,2.3,1.8,2.7,3.8,2.7c7.7-0.1,15.3-0.1,23,0c2.5,0,3.5-0.6,4.5-3.3c4.7-13.1,12.2-24,26.4-28.4
			c4.1-1.3,8.4-1.8,12.7-1.8c50.2,0,100.3-0.1,150.5,0.1c9,0,17.8,1.4,25.6,7c1.1-1.6,0.6-3.1,0.6-4.5c0-36.7,0.1-73.3,0-110
			c0-5.8-1-11.1-5-16c-5.1-6.3-9.4-13.3-14-20.1c-5.9-8.6-5-25.7,9.4-31.3c6.4-2.5,17-0.2,21.9,5.8c7.4,9,15.4,17.6,20.7,28
			c4.1,8.1,6.9,16.7,6.9,26.1c0,67-0.2,134,0.2,200.9c0.1,11-6.1,16.8-13.7,21.9c-2.4,1.6-2.9,2.9-2.9,5.3c0.1,10.3-0.4,20.7,0.1,31
			c0.9,16.8-9.9,26.6-24.5,30.4c-6,1.5-12,2.1-18.1,2.1c-55.7-0.1-111.3,0.1-167-0.1c-18.8-0.1-33.5-10.7-33.1-32.5
			c0.4-20.8-0.1-41.7,0.2-62.5c0.1-4.6-1.4-5.6-5.6-5.4c-5.6,0.3-11.3,0.3-17,0c-3.5-0.2-4.5,1-4.4,4.5c0.1,21.3,0,42.7,0.1,64
			c0.1,19.9-14.4,31.7-32.1,31.8c-58,0.4-116,0.2-174,0.1c-8,0-15.7-2.4-22.7-6.2c-10.2-5.4-14-14.7-14.2-25.7c-0.2-11-0.2-22,0-33
			c0.1-2.8-0.8-4-3.3-5.2c-7.2-3.4-10.9-8.9-10.9-17.3c0.2-70.3,0.1-140.6,0-210.9c0-10.6,3.5-19.8,10.1-27.8
			c5.1-6.1,10.5-12.1,16-17.8c4.5-4.6,9.7-8.3,16.5-7.9c8.5,0.4,14.2,5.4,17.7,12.6c3.2,6.7,2.5,13.6-2.2,19.6
			c-4.4,5.6-8.9,11.2-13.5,16.7c-2.8,3.4-4.7,7.1-4.7,11.7c0,39.8,0,79.6,0,119.5C1158,767.9,1158.1,768.5,1158.2,769.5z"/>
		<path class="st0" d="M201.8,262.7c24.7,10.1,34.5,30.1,36.2,55c1.3,18.9,0.3,37.6-6.3,55.7c-8.9,24.4-26.6,37.8-52.1,40.4
			c-26.8,2.7-53.6,1.3-80.3-1.3c-4.5-0.4-3.3-3.3-3.3-5.6c0-82,0-163.9,0-245.9c0-8.5,0-17,0-25.5c0-1.8-0.3-3.5,2.5-3.7
			c27.1-2.6,54.2-5,81.2-0.7c30.5,4.9,47.7,23.9,51.2,54.7c1.3,11.5,1.6,22.9-0.5,34.3C226.8,239,220.3,248.7,201.8,262.7z"/>
		<path class="st0" d="M389.4,393.2c-0.7,0.8-1.4,1.4-2,2.2c-8.8,11-20.4,16.8-34.1,18.7c-11,1.5-21.9,1.5-32.8-0.6
			c-20.8-4-34-17-38.2-37.8c-2.7-13.2-2.7-26.5,0.1-39.7c5.5-25.4,24.7-42.4,51.6-45.9c13.8-1.8,27.6-0.8,41.4-0.9
			c4.1,0,5-1.3,4.8-5c-0.3-6,0-12-0.1-18c-0.5-17.5-10.8-27.8-28.4-28c-17.8-0.3-35.2,2-52.3,7.1c-4,1.2-4.8,0.4-4.7-3.6
			c0.3-7.2,0.1-14.3,0-21.5c0-2.1,0.4-3.4,2.7-4c24.9-6.6,50-9.9,75.6-4.8c23.1,4.6,35.9,19.6,38.9,44.5c0.9,7,1.1,13.9,1.1,20.9
			c0,30.3,0,60.6,0,91c0,11.3,2.8,14.7,13.9,16c2.6,0.3,3.4,1,3.3,3.6c-0.2,7.2-0.1,14.3-0.1,21.5c0,1.7,0.2,3.3-2.4,3.3
			c-6.2-0.1-12.3,0.3-18.4-1.3C400.3,408.3,395.2,403.9,389.4,393.2z"/>
		<path class="st0" d="M573.1,719.3c-5.6-1.4-10.8-2.7-15.9-3.9c-12.1-3-24.3-4.4-36.6-2.5c-11.4,1.7-18.1,8.8-19.7,20.1
			c-0.2,1.6-0.5,3.3-0.6,5c-1.1,16.2,6.2,25.9,22.2,29.1c7,1.4,14,2.8,20.8,5.1c20.1,6.6,32.1,20,35.3,41.1
			c1.9,13,1.6,25.9-1.8,38.7c-5.4,20.2-20.2,30.4-39.4,34.7c-22.4,5-44.7,2.6-66.8-3c-2.2-0.6-2.8-1.7-2.8-3.8
			c0.1-7.5,0.2-15,0-22.5c-0.1-3.1,1.1-3.5,3.8-3c11.8,2.4,23.6,4.2,35.6,5.3c2.7,0.2,5.3,0.4,8,0.4c18.4,0.2,29.2-10.3,29.8-28.8
			c0.1-4.4-0.3-8.7-1.1-12.9c-1.5-8-6.1-13.4-13.9-16.2c-6.3-2.3-12.9-3.2-19.4-4.8c-37.3-9.2-48.7-34-43-68.7
			c4.2-25.1,22.1-40.8,48.5-44.5c18.5-2.6,36.5-0.5,54.3,5c1.6,0.5,2.7,0.9,2.7,2.9C573.1,700.8,573.1,709.8,573.1,719.3z"/>
		<path class="st0" d="M712,856.1c0,8.8,0,17,0,25.1c0,1.8-0.1,3.2-2.4,3.7c-13.4,3.1-26.8,5.6-40.6,3.3
			c-18.8-3.2-30.8-16.6-34-37.4c-0.9-5.8-1.1-11.6-1.1-17.4c0-37.5-0.1-75,0.1-112.5c0-3.9-0.9-5.2-4.9-5c-5.6,0.4-11.3,0-17,0.1
			c-2.6,0.1-3.5-0.7-3.4-3.3c0.2-7.8,0.2-15.7,0-23.5c-0.1-2.7,0.9-3.4,3.5-3.3c6,0.2,12-0.1,18,0.1c3.1,0.1,3.9-0.9,3.9-3.9
			c-0.2-13.3,0-26.7-0.1-40c0-3.1,0.6-4.3,4-4.2c8.3,0.3,16.7,0.2,25,0c3.2-0.1,4.2,0.7,4.2,4.1c-0.2,13.3,0,26.7-0.2,40
			c-0.1,3.4,1,4.1,4.2,4.1c12.3-0.2,24.7,0,37-0.1c2.9,0,4.1,0.6,4,3.8c-0.3,7.5-0.2,15,0,22.5c0.1,3.1-0.8,4-3.9,3.9
			c-12.2-0.2-24.3,0.1-36.5-0.2c-3.5-0.1-4.8,0.6-4.8,4.5c0.2,38.7,0.1,77.3,0.1,116c0,3.9,0.4,7.6,1.8,11.3
			c2.9,7.8,8.7,11.9,17.1,12.2C694.6,860.2,703.1,858.3,712,856.1z"/>
		<path class="st0" d="M198,883.6c-6.4,1.3-12.4,3.8-19,4.5c-5.1,0.6-10.1,0.8-15.1,0.8c-13.1,0.1-26.1,0-39.2,0
			c-2.8-1.1-5.8,0.1-8.5-0.8c-1.6-0.1-3.2-0.2-4.7-0.3c-1.7-0.9-3.6,0-5.2-0.7c-1.9-0.1-3.8-0.2-5.7-0.3c-4.1,0.5-6-0.9-4.9-5.3
			c0.4-1.4,0.1-3,0.1-4.5c0-87.4,0-174.7,0-262.1c0-1.5,0.3-3.1-0.1-4.5c-1.1-4.5,0.8-5.8,4.9-5.3c1.9-0.1,3.8-0.2,5.7-0.3
			c1.7-0.8,3.7,0.1,5.4-0.7c1.9-0.1,3.7-0.2,5.6-0.3c2.5-0.8,5.1,0.2,7.5-0.8c15.1,0,30.1,0,45.2,0c1.6,0.9,3.6-0.1,5.2,0.8
			c11.6,2.3,23.2,4.6,32.8,12.2c2.4,1.9,4.8,4,7.2,5.9c6.6,2.8,9.1,8.4,10,14.9c2.7,7.8,4.8,15.8,6.2,24c0.8,1.7-0.1,3.7,0.7,5.4
			c0,6,0,12.1,0,18.1c-0.8,1.7,0,3.7-0.8,5.4c-1.4,6-2.9,12-4.3,17.9c1.2,4.5-1.2,7.2-4.9,9c-1,0.3-1,1.2-1.1,1.9
			c0.5,4.4-2.6,5.7-5.8,7.1c-4.3,3.3-7.6,7.7-14,10.2c4.1,2,7.1,3.4,10.1,4.8c4.3-0.2,6.7,2.1,8,6c4.3,4.7,8.3,9.7,11.5,15.2
			c2.9,1.5,4.6,3.5,3.1,7c0.5,1.6,1.1,3.2,1.6,4.9c3.7,3.4,4.8,7.4,2.7,12c0.1,1.7,0.2,3.3,0.3,5c0.5,8,0.5,16,0,24
			c-1.7,16-4.3,31.7-13.1,45.7c-4.3,6.8-9.9,12.3-16.1,17.2C206.1,882.8,203.1,884.4,198,883.6z"/>
		<path class="st0" d="M369.1,798c-15.2,0-30.3,0.1-45.5-0.1c-3.5,0-4.5,0.9-4.3,4.4c0.8,12.5,1.4,25,5.4,36.9
			c5.1,15.2,12.5,20.5,28.5,20.6c15.6,0,30.9-2.1,46-5.5c4-0.9,5.2-0.1,5,4.1c-0.3,6.8-0.2,13.7,0,20.5c0.1,2.5-0.4,4-3.2,4.6
			c-22.9,5.1-46,7.7-69.4,3.2c-16.5-3.1-27.8-12.8-34.7-27.9c-5.7-12.6-8.2-26-9.4-39.7c-2.3-26-2.6-51.9,2.4-77.7
			c1.3-6.7,3.2-13.2,5.7-19.6c9.6-24.5,27.8-37,53.7-38.7c7.7-0.5,15.3-0.4,22.9,1.2c16.2,3.3,28.2,12.1,35.7,27
			c7,13.8,10.1,28.6,10.8,43.8c0.6,13,0.2,26,0.5,39c0.1,3.5-1.2,4-4.3,4C399.8,797.9,384.5,798,369.1,798z"/>
		<path class="st6" d="M100.4,605.1c-3.8,0.1-4.5,2.3-4.5,5.8c0.1,90,0.1,180,0,270.1c0,3.5,0.6,5.7,4.4,5.8
			c-0.7,0.7-1.3,1.5-2.1,2.1c-1.6,1.3-3.5,1.5-5,0.1c-1.6-1.4-1.7-3.6-0.3-4.9c2.4-2.3,2.1-5.1,2.1-7.9c0-86.8,0-173.7,0-260.5
			c0-2.6,0.5-5.3-1.8-7.5c-1.6-1.5-1.8-3.8,0-5.3c1.7-1.5,3.7-1.1,5.4,0.5C99.2,604,99.8,604.6,100.4,605.1z"/>
		<path class="st6" d="M225.1,637c-3-5.2-6-10.4-10-14.9C222.9,622.1,227.2,628.5,225.1,637z"/>
		<path class="st6" d="M238,786c-0.9-4-1.8-8-2.7-12c4.1-0.5,4.9,2.4,5.4,5.4C241.1,782.1,241.9,785,238,786z"/>
		<path class="st6" d="M198,883.6c3.7-1.9,7.4-3.9,11.1-5.8c0.7,3.9-1.1,6.4-4.8,7.5C201.8,886,199.3,887,198,883.6z"/>
		<path class="st6" d="M221.9,716.9c1.6-3,3.3-6,4.9-9c3.2,1.4,2.4,4,1.7,6.3C227.5,717.3,224.6,717,221.9,716.9z"/>
		<path class="st6" d="M219.1,747c-2.7-2-5.3-4-8-6C217.8,738.9,219,739.8,219.1,747z"/>
		<path class="st6" d="M215,726c1.9-2.4,3.9-4.7,5.8-7.1C223.3,724.6,222.3,725.9,215,726z"/>
		<path class="st6" d="M233.7,769.1c-1-2.3-2.1-4.6-3.1-7c2.1-0.1,4.5-0.5,5.2,2.3C236.3,766.4,236.2,768.4,233.7,769.1z"/>
		<path class="st6" d="M238.2,814.9c0-8,0-16,0-24C239.6,799,239.6,807,238.2,814.9z"/>
		<path class="st11" d="M262.9,805.1l-0.3,0c0,0-0.3,0-0.3,0c0-3.8,0-7.6,0-11.4c0.2,0,0.4,0,0.7,0
			C262.9,797.5,262.9,801.3,262.9,805.1z"/>
		<path class="st6" d="M116.1,888.1c2.9,0,5.8-0.3,8.5,0.8C121.8,888.7,118.8,889.6,116.1,888.1z"/>
		<path class="st6" d="M124.6,603c-2.4,1-5,0.8-7.5,0.8C119.5,602.4,122.1,603.2,124.6,603z"/>
		<path class="st6" d="M111.5,604.1c-1.7,0.8-3.5,0.8-5.4,0.7C107.8,603.7,109.6,604.1,111.5,604.1z"/>
		<path class="st6" d="M232,666.4c-0.8-1.7-0.8-3.6-0.7-5.4C232.4,662.7,232,664.6,232,666.4z"/>
		<path class="st6" d="M231.2,690c-0.1-1.9-0.1-3.7,0.8-5.4C232,686.4,232.4,688.3,231.2,690z"/>
		<path class="st6" d="M175.1,603.8c-1.8,0.1-3.6,0-5.2-0.8C171.6,603.1,173.4,602.7,175.1,603.8z"/>
		<path class="st6" d="M106.1,887.1c1.8-0.1,3.6-0.1,5.2,0.7C109.6,887.9,107.7,888.2,106.1,887.1z"/>
		<path class="st0" d="M707.6,395.9c-1.2,1-1.9,1.4-2.4,2c-19,17.8-41.5,20.6-65.6,14.4c-16.8-4.3-27.4-15.8-33.5-31.6
			c-5.9-15.3-7-31.5-7.7-47.6c-0.9-23.2-0.1-46.3,6.3-68.9c10-35.6,32.7-53.4,69.9-55c8.7-0.4,17.4-0.6,25.9,1.1
			c3.9,0.8,4-0.8,4-3.8c-0.1-23,0.1-46-0.2-69c-0.1-4.8,1.4-5.8,5.8-5.6c7.8,0.3,15.7,0.3,23.5,0c3.4-0.1,4.2,1,4.2,4.2
			c-0.1,19.7-0.1,39.3-0.1,59c0,70.5-0.1,140.9,0.1,211.4c0,4.7-1.3,5.9-5.8,5.7c-6.1-0.4-12.3-0.2-18.5-0.1
			c-2.4,0.1-3.5-0.6-3.8-3.2C709.3,404.8,708.4,400.7,707.6,395.9z"/>
		<path class="st0" d="M509.4,231c13.3-20.9,33-24.4,55.3-21c3.6,0.6,5.1,1.7,4.9,5.6c-0.3,8.5-0.3,17,0,25.5c0.2,4.5-0.8,6-5.5,4.6
			c-5.3-1.5-10.7-2.4-16.2-2.5c-15.2-0.5-26.2,7-31.7,21.7c-3.1,8.2-4.1,16.8-4.1,25.5c0,39-0.1,78,0.1,116.9c0,4-1,5-4.9,4.9
			c-7.8-0.3-15.7-0.3-23.5,0c-4.1,0.2-4.8-1.2-4.8-5c0.1-46.3,0.1-92.6,0.1-138.9c0-17.3,0.1-34.6-0.1-52c0-3.6,1-4.5,4.4-4.3
			c6.5,0.3,13,0.2,19.5,0c2.9-0.1,3.7,1,4,3.6c0.4,4.9,1,9.8,1.6,14.7C508.8,230.5,509.1,230.8,509.4,231z"/>
		<path class="st0" d="M1916,245.3c-5.6-1.4-10.8-2.7-15.9-3.9c-12.1-3-24.3-4.4-36.6-2.5c-11.4,1.7-18.1,8.8-19.7,20.1
			c-0.3,1.8-0.5,3.6-0.6,5.5c-0.9,16,6.4,25.5,22.2,28.7c7,1.4,14,2.8,20.8,5c20.1,6.5,32.1,20,35.3,41.1c1.9,13,1.6,25.9-1.8,38.7
			c-5.5,20.5-20.4,30.6-39.8,34.8c-22.3,4.8-44.4,2.4-66.3-3.1c-2.2-0.5-2.9-1.6-2.8-3.8c0.1-7.5,0.2-15,0-22.5
			c-0.1-3.1,1-3.6,3.8-3c11.8,2.4,23.6,4.2,35.6,5.3c2.7,0.2,5.3,0.4,8,0.4c18.5,0.2,29.2-10.2,29.9-28.7c0.1-4.4-0.3-8.7-1.1-12.9
			c-1.5-8-6.1-13.4-13.9-16.2c-6.3-2.3-12.9-3.2-19.4-4.8c-37.3-9.1-48.8-33.9-43.1-68.7c4.1-25.1,22-40.8,48.5-44.5
			c18.5-2.6,36.5-0.5,54.3,5c1.9,0.6,2.8,1.3,2.8,3.4C1915.9,227.2,1916,236,1916,245.3z"/>
		<path class="st0" d="M1764,153.6c1.8,9.4-1.7,20.2-6,31c-5.6,14.2-10.8,28.6-15.9,43c-1,2.9-2.4,3.8-5.4,3.7
			c-5.5-0.2-11-0.3-16.5,0c-4,0.3-5-0.9-4.2-4.9c3.6-18.3,7.1-36.5,10.2-54.9c1.9-11.2,0.7-22.6,0.6-33.9c0-4.6,1.2-5.8,5.7-5.6
			c9,0.4,18,0.3,26.9,0c3.9-0.1,4.7,1.2,4.5,4.8C1763.7,141.5,1764,146.4,1764,153.6z"/>
		<path class="st6" d="M1108.1,311.7c0.2-14.8,0.5-29.6,3.8-44.2c0.1-0.6,0.2-1.3,0.4-2c5.6-21.8,19.4-30.9,41.8-28.2
			c14.6,1.8,23.7,9.5,28,23.3c5.5,17.8,5.6,36.1,5.7,54.4c0.1,14.8-0.7,29.6-4.7,44.1c-6.5,23.4-26.9,33.8-49.8,25.4
			c-9.2-3.4-15-10.2-18.4-19.1c-5.2-13.6-6-27.9-6.7-42.2C1108,319.4,1108.1,315.6,1108.1,311.7z"/>
		<path class="st6" d="M1523,898.1c-25.2,0-50.3-0.1-75.5,0.1c-3.3,0-4.3-0.5-4.3-4.2c0.2-28.7,0.2-57.3,0-86c0-3.4,1-4.3,4.2-4.3
			c49.2,0.1,98.3,0,147.5,0.1c5.6,0,9.2,3.8,9.2,9.3c0,26.8-0.1,53.6,0.1,80.5c0,3.8-1,4.7-4.7,4.7
			C1573.9,898.1,1548.5,898.1,1523,898.1z"/>
		<path class="st6" d="M1255.7,896.8c-25.3,0-50.6-0.1-75.9,0.1c-3.9,0-5-1-5-5c0.2-26.3,0.1-52.6,0.1-78.9c0-5.7,3.5-9.3,9.1-9.3
			c48.8,0,97.6,0,146.4-0.1c4.1,0,5.4,1.1,5.4,5.4c-0.2,27.6-0.3,55.3,0,82.9c0,4.1-0.8,4.9-4.7,4.9
			C1306,896.7,1280.9,896.8,1255.7,896.8z"/>
		<path class="st6" d="M129.9,331.5c0-16,0.1-32-0.1-48c0-3.3,0.5-4.7,4.3-4.6c13.5,0.6,27-0.8,40.4,0.8
			c12.9,1.5,21.7,8.5,25.2,20.9c5.8,20.6,6,41.5-0.4,62c-5.1,16.3-14.9,22.9-32,23.3c-11.3,0.2-22.6-1-33.9-1.8
			c-3.3-0.2-3.6-1.6-3.6-4.3C130,363.9,129.9,347.7,129.9,331.5z"/>
		<path class="st6" d="M129.9,205.1c0-13,0.2-26-0.1-39c-0.1-4.5,0.9-6.2,5.6-6.6c12.3-1,24.5-2.2,36.9-0.5
			c11.8,1.6,19.6,7.9,22.6,19.5c4,15.6,4.6,31.3,1,47c-3.7,16.1-13.1,23.5-30.3,24.3c-10.8,0.5-21.7,0.1-32.5,0.3
			c-3.5,0.1-3.1-1.9-3.1-4.1C129.9,232.4,129.9,218.7,129.9,205.1z"/>
		<path class="st6" d="M380.1,338.9c0,4.8,0,9.7,0,14.5c0,18.5-11,30.6-29.6,32.4c-5.3,0.5-10.7,0.1-15.9-1
			c-10.4-2.3-17.2-8.4-19.1-19.2c-1.8-10.1-2-20.2,2.1-30c5.3-12.5,14.9-18.9,28.3-19.4c10.3-0.4,20.7,0,31-0.2
			c2.7,0,3.4,0.8,3.3,3.4C380,325.9,380.1,332.4,380.1,338.9z"/>
		<path class="st6" d="M129.9,805.5c0-16,0.1-32-0.1-48c-0.1-3.8,1.1-4.7,4.7-4.6c11.2,0.2,22.3-0.1,33.5,0.1
			c18.9,0.4,29,8.3,33.1,26.8c4.1,18.3,4.1,36.8-1.1,54.9c-5.1,17.8-15.1,25-33.6,25.2c-11,0.1-21.9-1.1-32.9-1.8
			c-3.2-0.2-3.7-1.4-3.7-4.2C130,837.8,129.9,821.7,129.9,805.5z"/>
		<path class="st6" d="M129.9,679.1c0-13.7,0.1-27.3-0.1-41c0-3,0.6-4.2,4-4.5c12.8-1.2,25.5-2.5,38.4-0.8c12,1.6,19.9,8,22.8,19.9
			c3.6,14.7,4.4,29.7,1.3,44.6c-3.5,17.2-12.2,25.2-29.6,26.3c-11.3,0.7-22.6,0.2-34,0.4c-3.3,0.1-2.8-2-2.8-3.9
			C129.9,706.4,129.9,692.8,129.9,679.1z"/>
		<path class="st6" d="M353.1,771c-9.8,0-19.6-0.1-29.5,0c-2.5,0-3.9-0.2-3.7-3.4c0.8-11.6,1.7-23.3,5.3-34.5
			c6.1-19,25.1-27.6,43.6-19.8c5.6,2.4,9.6,6.5,12.1,12c6.4,13.9,6.3,28.8,6.2,43.6c0,2.8-2.1,2-3.5,2.1
			C373.4,771,363.2,771,353.1,771z"/>
		<path class="st6" d="M704.4,298.5c0,17-0.3,34,0.1,50.9c0.5,25.8-25.5,45-54.2,33c-7.2-3-10.7-9.7-13.2-16.7
			c-3-8.6-4.1-17.5-4.5-26.5c-1.1-21.8-0.6-43.6,4.4-65c1.1-4.9,2.9-9.5,5.1-14c7.1-14,18.5-21.4,34.2-22c8-0.3,16,0.3,23.9,0.8
			c3.5,0.2,4.3,1.8,4.3,5.1C704.4,262.2,704.4,280.4,704.4,298.5z"/>
		<path d="M1163.9,311.4c0.1,12.5-0.6,23.5-2,34.4c-0.3,2.6-1,5.2-1.9,7.7c-3.2,9-7,11-16.4,9.3c-3.5-0.7-5.3-3.1-6.6-6.1
			c-4.2-9.6-4.2-19.8-4.7-29.9c-0.9-16.8-0.3-33.6,1.8-50.3c0.1-1.2,0.4-2.3,0.6-3.4c2.6-11.3,7.4-14.3,18.7-11.8
			c2.5,0.6,3.9,2.3,5,4.4c3.5,6.5,3.9,13.8,4.4,20.8C1163.4,295.3,1164.3,304.1,1163.9,311.4z"/>
		<path d="M1523,873.9c-17,0-33.9-0.1-50.9,0.1c-3.7,0-4.9-1-4.9-4.7c0.2-12.1,0.2-24.3,0-36.4c-0.1-3.5,0.8-4.9,4.7-4.9
			c34.4,0.1,68.9,0.1,103.3,0c3.7,0,4.9,1,4.8,4.7c-0.2,12.1-0.3,24.3,0,36.4c0.1,4.1-1.4,5-5.2,4.9
			C1557.6,873.8,1540.3,873.9,1523,873.9z"/>
		<path d="M1255.4,872.8c-17.2,0-34.3-0.1-51.5,0.1c-4,0-5.1-1.2-5-5.1c0.2-11.7,0.3-23.3,0-35c-0.1-4.1,1.4-5,5.1-4.9
			c34.3,0.1,68.6,0.1,102.9,0c3.8,0,4.9,1.1,4.8,4.8c-0.2,11.8-0.2,23.6,0,35.5c0.1,3.9-1.3,4.7-4.9,4.7
			C1289.7,872.7,1272.6,872.8,1255.4,872.8z"/>
		<path d="M153.9,332.5c0-8.5,0.1-17,0-25.5c-0.1-3,1-4.2,4-4c3.7,0.2,7.3,0.2,11,0c4.4-0.2,7.6,1.6,8.6,6c3.4,15.8,4,31.6-1,47.2
			c-1.3,4.2-4.1,5.9-8.6,5.9c-14,0.1-14,0.3-14-13.7C153.9,343.2,153.9,337.8,153.9,332.5z"/>
		<path d="M153.9,203.9c0-5.8,0.1-11.6,0-17.4c-0.1-3,0.7-4.4,4.1-4.5c14.2-0.4,15.1,0.2,15.8,14.5c0.4,7.1,0.7,14.3-0.6,21.4
			c-1.2,6.8-2.7,8-9.6,8.1c-9.7,0.2-9.7,0.2-9.7-9.6C153.9,212.2,153.9,208.1,153.9,203.9z"/>
		<path class="st12" d="M356.1,349.3c0,1.8-0.1,3.7,0,5.5c0.3,4.4-2.4,6.2-6.2,7.1c-0.3,0.1-0.7,0.1-1,0.1
			c-3.4-0.8-8.1,2.3-10.2-2.4c-2.4-5.4-0.3-15.7,3.6-18.2c3.9-2.5,8.4-1.2,12.6-1c1.1,0.1,1.1,1.5,1.1,2.5
			C356.1,345,356.1,347.2,356.1,349.3C356.1,349.3,356.1,349.3,356.1,349.3z"/>
		<path d="M153.9,806.5c0-8.2,0.2-16.3-0.1-24.5c-0.1-3.7,0.8-5.6,4.9-5.2c3.5,0.3,7,0.2,10.5,0.1c4.3-0.1,7.3,1.8,8.1,5.8
			c3.5,16,4.2,31.9-1.1,47.7c-1.3,4-4.1,5.5-8.3,5.6c-14.1,0.2-14.1,0.3-14.1-13.5C153.9,817.2,153.9,811.9,153.9,806.5z"/>
		<path d="M173.9,678.3c0.1,4.5,0.2,9-0.6,13.4c-1.3,6.9-2.7,8.2-9.5,8.2c-11.9,0-9.7,1.4-9.8-9.5c-0.1-10,0.1-19.9-0.1-29.9
			c-0.1-3.4,0.9-4.6,4.5-4.6c14-0.2,14.6,0.3,15.5,14.4C174,672.9,173.9,675.6,173.9,678.3z"/>
		<path class="st12" d="M353.9,747c-8.9,0-9.2-0.7-5.2-8.9c1.6-3.4,4.3-2.8,7.1-3.1c2.9-0.3,4.2,1.3,5,3.7c0.3,0.9,0.7,1.9,0.9,2.8
			c1.2,3.9,0.3,6.1-4.3,5.5C356.2,746.8,355.1,747,353.9,747z"/>
		<path d="M680.4,308.8c0,13.5-0.2,27,0.1,40.5c0.2,9.9-7.7,14.5-17.7,12.4c-2.1-0.4-2.6-2.4-3.3-4.1c-2.7-6.3-2.7-13-3.1-19.6
			c-0.9-18-0.3-35.9,2.4-53.8c0.9-5.7,3.4-10.8,6.1-15.7c1.2-2.2,3.1-3.9,5.4-5c6.9-3.4,10.1-1.5,10.1,5.9
			C680.4,282.5,680.4,295.6,680.4,308.8z"/>
	</g>
</g>
</svg>
